PathFileType	4	(X/Y/Z)	/Users/niels/Desktop/University/Third Semester/Perception and Action/Exam/Gymnastics Motion Tracking/Code for Gym Tracking/Analyzed Data/Webcam_Backflip/id4_1_baseline_Sports2D/id4_1_baseline_Sports2D_px_person00.trc
DataRate	CameraRate	NumFrames	NumMarkers	Units	OrigDataRate	OrigDataStartFrame	OrigNumFrames
29.80132450331126	29.80132450331126	7	22	m	29.80132450331126	132	151
Frame#	Time	Hip			RHip			RKnee			RAnkle			RBigToe			RSmallToe			RHeel			LHip			LKnee			LAnkle			LBigToe			LSmallToe			LHeel			Neck			Head			Nose			RShoulder			RElbow			RWrist			LShoulder			LElbow			LWrist		
		X1	Y1	Z1	X2	Y2	Z2	X3	Y3	Z3	X4	Y4	Z4	X5	Y5	Z5	X6	Y6	Z6	X7	Y7	Z7	X8	Y8	Z8	X9	Y9	Z9	X10	Y10	Z10	X11	Y11	Z11	X12	Y12	Z12	X13	Y13	Z13	X14	Y14	Z14	X15	Y15	Z15	X16	Y16	Z16	X17	Y17	Z17	X18	Y18	Z18	X19	Y19	Z19	X20	Y20	Z20	X21	Y21	Z21	X22	Y22	Z22
132	4.429333333333333	1.1273863535719821	-0.5771657338716116	0.0	1.1261524119848965	-0.5751215667621223	0.0	1.125710242672199	-0.687941725517629	0.0	1.1063610585388364	-0.7940018722916867	0.0	1.1367702607555066	-0.8186879997378461	0.0	1.1305244051667025	-0.8190578430010572	0.0	1.1005151527350145	-0.8123226088792056	0.0	1.128330659989986	-0.5748103651762699	0.0	1.125366755352585	-0.6865315626149165	0.0	1.1069804348942036	-0.7925414524969892	0.0	1.1349099198605137	-0.817370571438633	0.0	1.131385190255289	-0.8124362989056834	0.0	1.0999674208624433	-0.8058868467212067	0.0	1.1285449503072256	-0.42379434167115837	0.0	1.1625000148719766	-0.3507540356015977	0.0	1.160183112859592	-0.3896010024291077	0.0	1.1252556146533998	-0.43174040188214996	0.0	1.1736823069988702	-0.3737460402897775	0.0	1.2067429940847283	-0.31182696585858066	0.0	1.1253487573862428	-0.43091073052785406	0.0	1.168359665021494	-0.3765688649760785	0.0	1.2039149395288415	-0.3155913394999085	0.0
133	4.462888888888888	1.1258244025145252	-0.5740885033904287	0.0	1.1249667590352395	-0.5722009446417425	0.0	1.1253283363919666	-0.6850071846909946	0.0	1.1059143786770138	-0.7915618116014645	0.0	1.1370374096390743	-0.8152937511886944	0.0	1.130206536746051	-0.8157834445712083	0.0	1.0995508694907135	-0.809318158057784	0.0	1.126288808578705	-0.5717676958961161	0.0	1.1245151238329607	-0.6834985553857641	0.0	1.1062067412405612	-0.7902429779079038	0.0	1.1345410163666214	-0.814240906457949	0.0	1.1308613981289748	-0.809636057596882	0.0	1.0992378454726628	-0.8034981856104517	0.0	1.1276240070422252	-0.4212609417915387	0.0	1.1636044048272638	-0.3496478603694593	0.0	1.160792940807839	-0.3870574596165479	0.0	1.123803307168354	-0.4298504523720331	0.0	1.1766557225987462	-0.3760603092551012	0.0	1.2140537574803492	-0.31725269194760025	0.0	1.1240749365868252	-0.42877565426935704	0.0	1.1682646781874535	-0.3779007175469299	0.0	1.2074851654564283	-0.3195010437315102	0.0
134	4.496444444444444	1.124255967690055	-0.5700915225014404	0.0	1.1235925008471446	-0.5682636362546107	0.0	1.1248510216351388	-0.6808683488680772	0.0	1.1055438842061946	-0.7879630564538477	0.0	1.1375180012985635	-0.8107184505289708	0.0	1.130083336980772	-0.8114677147627657	0.0	1.0986656885586572	-0.8050907011500945	0.0	1.1242507056167692	-0.5676205416772234	0.0	1.1234850276208375	-0.6794417873039182	0.0	1.1054831607263063	-0.7866348015779443	0.0	1.1344054379825292	-0.8098323405224003	0.0	1.1307736200121268	-0.8055301498989775	0.0	1.0981427983539207	-0.7997838241532673	0.0	1.12700520404148	-0.4183824540450246	0.0	1.1645894540545547	-0.34808485288301766	0.0	1.1618458495062638	-0.38409791785753933	0.0	1.1222712290193873	-0.4272735925432675	0.0	1.1797758957688005	-0.3789003981376105	0.0	1.2214017864829292	-0.3235516532105777	0.0	1.1224994905344012	-0.42607473895306197	0.0	1.1665713476204453	-0.38013644259146323	0.0	1.207001067188785	-0.3248837434054177	0.0
135	4.529999999999999	1.1229073786623673	-0.5656572792124777	0.0	1.1221717867490155	-0.5637867749150026	0.0	1.1243056650014935	-0.6761056431441501	0.0	1.1052412037784485	-0.7836131791985661	0.0	1.1381391072428013	-0.805638520623202	0.0	1.1302138313636694	-0.8067519728319098	0.0	1.0978736479929017	-0.8001526823365921	0.0	1.1225247776529972	-0.562816676200154	0.0	1.122458902275497	-0.6748531413451568	0.0	1.1049780593616416	-0.7820914131635127	0.0	1.1345226960151893	-0.8047410212611926	0.0	1.1311454423970408	-0.800627978069768	0.0	1.0967964422456529	-0.7951669670268078	0.0	1.1267014690820676	-0.4155714322320663	0.0	1.165349412855314	-0.3462064169341455	0.0	1.1633636860274195	-0.3812750376840243	0.0	1.1209563785735335	-0.42434068296957206	0.0	1.1827281684419173	-0.3831649142611194	0.0	1.2284065247193172	-0.3313472911526569	0.0	1.1205841841510948	-0.4232009710112667	0.0	1.1629060649492613	-0.38420909418241866	0.0	1.201369853553975	-0.3326260825937469	0.0
136	4.563555555555555	1.1219053228132554	-0.5612911795006719	0.0	1.1208042214131062	-0.5592760072768251	0.0	1.1236973562447925	-0.6713172158427724	0.0	1.1049476904997517	-0.7790594457898088	0.0	1.1389105568771845	-0.8008529299982997	0.0	1.1306606363370992	-0.8024002199350714	0.0	1.0970673226235297	-0.7951475433696428	0.0	1.1213981522406065	-0.5579374872596026	0.0	1.1216347220941345	-0.6702582808430034	0.0	1.1047919750986777	-0.7772148087303835	0.0	1.1349684227907875	-0.7997322488625102	0.0	1.1320272655328993	-0.795620692334194	0.0	1.095360168657187	-0.7902756624667968	0.0	1.1267358802431924	-0.41294737636275564	0.0	1.165651814978664	-0.3439372297006655	0.0	1.165131405338534	-0.37889251678118185	0.0	1.1200805812116714	-0.42135054899048385	0.0	1.1849806234133455	-0.389684087696077	0.0	1.2346151878541936	-0.34141034958289707	0.0	1.1186728489923023	-0.42048682993718145	0.0	1.1580608630296751	-0.3909564053025885	0.0	1.1917192784043098	-0.3433517355835409	0.0
137	4.5971111111111105	1.1212312118549412	-0.5574867767001024	0.0	1.119560843992985	-0.555249036034876	0.0	1.1230252680633706	-0.6670138079982408	0.0	1.1046283834444297	-0.7749021521283118	0.0	1.1398173636057438	-0.797005183449127	0.0	1.1313725036436115	-0.7989930235407181	0.0	1.0961864493906168	-0.7907164377654011	0.0	1.120972533738235	-0.553640476514797	0.0	1.1210824335519534	-0.6661757973586495	0.0	1.1048948838761636	-0.7727472176980333	0.0	1.1357318240239485	-0.7955494287856514	0.0	1.1333327212513513	-0.7912686801869542	0.0	1.09405670414292	-0.785864453365262	0.0	1.1271391762360496	-0.41046456104255313	0.0	1.1652068160563118	-0.3411514210768346	0.0	1.1667888616064426	-0.3769492474489665	0.0	1.1197413343329996	-0.41859549171402766	0.0	1.1858812068835007	-0.3990342295666626	0.0	1.2394773590613	-0.35448636095018204	0.0	1.1173525097513548	-0.4182206194327741	0.0	1.1540574914903108	-0.40082570658457745	0.0	1.1823493118572908	-0.35729774256864216	0.0
138	4.6306666666666665	1.1207666892973633	-0.5546530510196191	0.0	1.1185182175528374	-0.5521822979464375	0.0	1.122340339867829	-0.6636138438651037	0.0	1.1043285491948587	-0.7716438185598252	0.0	1.1407104797485446	-0.7944135990853992	0.0	1.1321200580838802	-0.7967515284850958	0.0	1.0953317604818924	-0.7873538119444754	0.0	1.1210656110089487	-0.55049567672094	0.0	1.1207303335150738	-0.663051484686613	0.0	1.1051624206611377	-0.7693458951657189	0.0	1.1366147370013926	-0.792730668972347	0.0	1.134728901352091	-0.7882292808313727	0.0	1.0930949001911687	-0.7826059248136166	0.0	1.1279058559756452	-0.4081857899372148	0.0	1.1639076939310444	-0.3379824818061971	0.0	1.167981927165628	-0.37535693122217495	0.0	1.119938171997555	-0.4164102709497299	0.0	1.1848517102668719	-0.41130671323981566	0.0	1.2424602170195762	-0.37102734338411814	0.0	1.1170467345716388	-0.416694285809476	0.0	1.152692873502502	-0.41351233230577333	0.0	1.1788415432307586	-0.37434456194303306	0.0
